# xmcd
#
# Track frame offsets:
#	150
#	32080
#	62320
#	96392
#	130252
#	153627
#	201907
#	255835
#
# Disc length: 3932 seconds
#
# Revision: 1
# Processed by: cddbd v1.4PL0 Copyright (c) Steve Scherf et al.
# Submitted via: audiograbber 1.80
#
DISCID=650f5a08
DTITLE=Grateful Dead - Nightfall of Diamonds (d.1/2) 10-16-89 Meadowlands Arena
DTITLE=, NJ
DYEAR=1900
DGENRE=
TTITLE0=Picasso Moon ->
TTITLE1=Mississippi Halfstep Uptown Toodeloo ->
TTITLE2=Feel Like a Stranger
TTITLE3=Never Trust a Woman
TTITLE4=Built to Last
TTITLE5=Stuck inside of Mobile with the Memphis Blues Again
TTITLE6=Let it Grow ->
TTITLE7=Deal
EXTD=Bob's 42 Birthday
EXTT0=
EXTT1=
EXTT2=
EXTT3=
EXTT4=
EXTT5=
EXTT6=
EXTT7=
PLAYORDER=
